# xmcd
#
# Track frame offsets:
#	150
#	13389
#	25352
#	38575
#	51799
#
# Disc length: 898 seconds
#
# Revision: 1
# Processed by: cddbd v1.5.2PL0 Copyright (c) Steve Scherf et al.
# Submitted via: audiograbber 1.83.01
#
DISCID=39038005
DTITLE=Corona - Promos CR-2324 Corona
DYEAR=2000
DGENRE=Country
TTITLE0=Let Me Down Easy - Jimmy Bee
TTITLE1=I´ve Got Heartaches Tonight  - Danny Spann
TTITLE2=Country Living  - Bobby Dale Fricks
TTITLE3=She Just Ran Out Of Sunshine  - Joe Bill Culp
TTITLE4=Take Me In  - Dan Mcclinton
EXTD=
EXTT0=
EXTT1=
EXTT2=
EXTT3=
EXTT4=
PLAYORDER=
